Coordinates
version=1
nRows=34
nColumns=38
inDegrees=no

Units are S.I. units (second, meters, Newtons, ...)
If the header above contains a line with 'inDegrees', this indicates whether rotational values are in degrees (yes) or radians (no).

endheader
time	pelvis_tilt	pelvis_list	pelvis_rotation	pelvis_tx	pelvis_ty	pelvis_tz	hip_flexion_r	hip_adduction_r	hip_rotation_r	knee_angle_r	ankle_angle_r	subtalar_angle_r	mtp_angle_r	hip_flexion_l	hip_adduction_l	hip_rotation_l	knee_angle_l	ankle_angle_l	subtalar_angle_l	mtp_angle_l	lumbar_extension	lumbar_bending	lumbar_rotation	arm_flex_r	arm_add_r	arm_rot_r	elbow_flex_r	pro_sup_r	wrist_flex_r	wrist_dev_r	arm_flex_l	arm_add_l	arm_rot_l	elbow_flex_l	pro_sup_l	wrist_flex_l	wrist_dev_l
0.71	-0.256427	1.38438	-1.18271	0.868486	1.12882	0.938876	0.130978	-0.0368309	-0.212449	0	-0.258249	0	0	-0.394392	-0.129076	-0.372407	0.300536	-0.0601426	0	0	-0.342289	0.0334181	-0.232945	-0.0622686	-0.466367	0.436047	0.762578	0.98153	0	0	-0.0635788	-0.435691	-0.0415198	1.17806	1.5708	0	0
0.72	-0.24753	1.38878	-1.19035	0.867623	1.11828	0.937098	0.129712	-0.0444524	-0.202642	0	-0.238797	0	0	-0.399456	-0.129537	-0.372	0.306492	-0.0586411	0	0	-0.337259	0.0319618	-0.233407	-0.0635976	-0.46723	0.438191	0.763467	0.977741	0	0	-0.0647541	-0.430922	-0.0450296	1.18632	1.5708	0	0
0.73	-0.247295	1.39186	-1.18825	0.866693	1.1075	0.935514	0.130389	-0.0438796	-0.20747	0	-0.21696	0	0	-0.403887	-0.133628	-0.37333	0.315998	-0.0530177	0	0	-0.335807	0.0328176	-0.217059	-0.112448	-0.417835	0.263784	0.768842	1.15517	0	0	-0.047846	-0.430705	-0.0209135	1.18786	1.5708	0	0
0.74	-0.245319	1.38754	-1.18684	0.865832	1.09699	0.934609	0.1227	-0.0402999	-0.207192	0	-0.236621	0	0	-0.415871	-0.140346	-0.373363	0.323435	-0.0564468	0	0	-0.337343	0.0369152	-0.240413	-0.0565815	-0.473045	0.461646	0.764404	0.954775	0	0	-0.0753018	-0.41809	-0.0653462	1.20775	1.5708	0	0
0.75	-0.251504	1.3837	-1.17756	0.864876	1.08625	0.933939	0.116093	-0.0346856	-0.196799	0	-0.2558	0	0	-0.426636	-0.148468	-0.373135	0.331253	-0.0595943	0	0	-0.340944	0.0424159	-0.242009	-0.0576761	-0.470464	0.453139	0.764455	0.965044	0	0	-0.078957	-0.411381	-0.0726496	1.21675	1.5708	0	0
0.76	-0.259528	1.37792	-1.16644	0.863875	1.07536	0.933624	0.107009	-0.0272152	-0.180356	0	-0.272313	0	0	-0.439393	-0.157587	-0.37279	0.338249	-0.0653763	0	0	-0.346413	0.0493729	-0.243978	-0.0580689	-0.467921	0.445637	0.764498	0.976519	0	0	-0.0840559	-0.404138	-0.0810079	1.22565	1.5708	0	0
0.77	-0.268119	1.37119	-1.15425	0.862884	1.0642	0.933571	0.0965595	-0.01873	-0.164066	0	-0.277985	0	0	-0.453018	-0.167266	-0.372331	0.344757	-0.0740134	0	0	-0.352286	0.057322	-0.246809	-0.0581257	-0.465073	0.438605	0.763752	0.988453	0	0	-0.0907744	-0.396564	-0.0898042	1.23396	1.5708	0	0
0.78	-0.274905	1.36439	-1.14254	0.86208	1.05277	0.93374	0.0934281	-0.0117062	-0.169933	0.0316731	-0.276268	0	0	-0.466143	-0.177013	-0.371424	0.351755	-0.0850538	0	0	-0.357803	0.0658507	-0.250724	-0.0585607	-0.462336	0.432024	0.762317	1.00046	0	0	-0.0980547	-0.389229	-0.0967553	1.24072	1.5708	0	0
0.79	-0.280694	1.35869	-1.13188	0.861264	1.04121	0.933995	0.0856354	-0.00437483	-0.169062	0.0438909	-0.288831	0	0	-0.476267	-0.187002	-0.373257	0.363252	-0.0964073	0	0	-0.362274	0.0741372	-0.25432	-0.0597473	-0.45967	0.425197	0.761112	1.011	0	0	-0.105719	-0.383328	-0.100877	1.24604	1.5708	0	0
0.8	-0.285005	1.35441	-1.12295	0.860347	1.02948	0.934323	0.0769173	0.00219198	-0.166123	0.0479263	-0.316297	0	0	-0.483817	-0.196299	-0.375274	0.377032	-0.110102	0	0	-0.365279	0.081596	-0.25726	-0.0628688	-0.455793	0.414455	0.760199	1.02449	0	0	-0.113868	-0.376946	-0.104637	1.24982	1.5708	0	0
0.81	-0.289912	1.3531	-1.11355	0.859327	1.01747	0.934505	0.0694235	0.00768284	-0.166462	0.0503757	-0.329838	0	0	-0.485367	-0.206218	-0.38024	0.397987	-0.119749	0	0	-0.363976	0.0878402	-0.258891	-0.0680979	-0.453616	0.406835	0.760467	1.02955	0	0	-0.121078	-0.371842	-0.103423	1.24995	1.5708	0	0
0.82	-0.294857	1.35318	-1.10407	0.858177	1.0052	0.934775	0.0601092	0.0131149	-0.167897	0.0487047	-0.364472	0	0	-0.483725	-0.216427	-0.385435	0.421469	-0.140784	0	0	-0.363126	0.0931864	-0.252705	-0.101152	-0.416173	0.284641	0.760596	1.16281	0	0	-0.121872	-0.369155	-0.0911484	1.24744	1.5708	0	0
0.83	-0.292557	1.34974	-1.10204	0.85696	0.993035	0.935334	0.0485088	0.0181586	-0.177507	0.0550729	-0.391298	0	0	-0.484162	-0.227242	-0.390996	0.447772	-0.168508	0	0	-0.359781	0.0987075	-0.273211	-0.0466538	-0.478124	0.506548	0.758633	0.924863	0	0	-0.148208	-0.360407	-0.113827	1.25102	1.5708	0	0
0.84	-0.292824	1.34702	-1.09769	0.855891	0.980808	0.936177	0.0388158	0.0242624	-0.192366	0.0664046	-0.397688	0	0	-0.480794	-0.238176	-0.393683	0.478363	-0.191781	0	0	-0.360152	0.104875	-0.275562	-0.0512969	-0.475883	0.500864	0.758208	0.930438	0	0	-0.157339	-0.356289	-0.111124	1.24832	1.5708	0	0
0.85	-0.295015	1.34459	-1.0932	0.854427	0.968609	0.937077	0.0335017	0.0286436	-0.206053	0.0844112	-0.397335	0	0	-0.473954	-0.250021	-0.395986	0.514981	-0.218812	0	0	-0.359992	0.110376	-0.275352	-0.0576322	-0.472685	0.49184	0.758308	0.937639	0	0	-0.165539	-0.353269	-0.106227	1.24385	1.5708	0	0
0.86	-0.300017	1.34089	-1.08728	0.852719	0.956593	0.938227	0.0310584	0.0326182	-0.22283	0.113929	-0.383703	0	0	-0.465048	-0.263448	-0.396966	0.557295	-0.246916	0	0	-0.361203	0.116552	-0.273011	-0.0643482	-0.469535	0.481196	0.759456	0.946357	0	0	-0.172621	-0.350894	-0.0999763	1.23792	1.5708	0	0
0.87	-0.308325	1.33612	-1.07934	0.85072	0.94486	0.939584	0.0262565	0.0379543	-0.237953	0.139828	-0.373091	0	0	-0.453733	-0.278634	-0.396103	0.605397	-0.272512	0	0	-0.363912	0.12325	-0.269173	-0.0704174	-0.465586	0.469264	0.760665	0.956986	0	0	-0.179217	-0.348931	-0.0939114	1.23137	1.5708	0	0
0.88	-0.320949	1.32775	-1.06674	0.848671	0.933372	0.941393	-0.00403211	0.0596465	-0.2219	0.0980424	-0.391309	0	0	-0.442305	-0.297302	-0.393253	0.657747	-0.297245	0	0	-0.369753	0.132655	-0.265939	-0.0717196	-0.464652	0.469937	0.76142	0.956161	0	0	-0.18628	-0.347155	-0.0889608	1.22414	1.5708	0	0
0.89	-0.29312	1.32373	-1.095	0.845512	0.922801	0.944508	-0.0205749	0.0605125	-0.22567	0.10312	-0.391528	0	0	-0.444643	-0.253476	-0.25234	0.647346	-0.288749	0	0	-0.377463	0.128317	-0.264083	-0.0626605	-0.456066	0.485079	0.746367	0.942215	0	0	-0.188773	-0.351141	-0.0809945	1.20991	1.5708	0	0
0.9	-0.305392	1.31993	-1.08508	0.843132	0.91172	0.945706	-0.0300935	0.0682546	-0.233192	0.115004	-0.381533	0	0	-0.421342	-0.265621	-0.242361	0.712719	-0.301666	0	0	-0.379096	0.134301	-0.260802	-0.0616015	-0.457275	0.494312	0.748065	0.932111	0	0	-0.196765	-0.349022	-0.0785913	1.20245	1.5708	0	0
0.91	-0.322151	1.32073	-1.07124	0.840756	0.90063	0.946439	-0.0323191	0.0736659	-0.244566	0.133192	-0.352727	0	0	-0.390489	-0.276387	-0.23249	0.781933	-0.309935	0	0	-0.379236	0.138536	-0.239381	-0.117271	-0.395859	0.283326	0.75051	1.15813	0	0	-0.188966	-0.353454	-0.0511827	1.18974	1.5708	0	0
0.92	-0.330571	1.31673	-1.06575	0.838411	0.890101	0.94723	-0.0427677	0.0805286	-0.250133	0.141387	-0.34108	0	0	-0.363876	-0.287646	-0.22535	0.85282	-0.305463	0	0	-0.376742	0.143217	-0.250676	-0.060316	-0.466381	0.525435	0.756352	0.888784	0	0	-0.2104	-0.349732	-0.0645347	1.18419	1.5708	0	0
0.93	-0.339241	1.31532	-1.06005	0.836097	0.879568	0.947915	-0.0528051	0.0869312	-0.253304	0.145069	-0.33106	0	0	-0.333818	-0.297446	-0.218866	0.922978	-0.300107	0	0	-0.377004	0.146013	-0.245568	-0.0651515	-0.463716	0.516105	0.760257	0.895268	0	0	-0.217045	-0.349603	-0.0598126	1.17675	1.5708	0	0
0.94	-0.340836	1.31391	-1.06083	0.833918	0.869129	0.948686	-0.068393	0.0930776	-0.254905	0.141616	-0.320915	0	0	-0.304358	-0.305325	-0.213286	0.989803	-0.298182	0	0	-0.378018	0.147157	-0.241234	-0.0703304	-0.460502	0.504965	0.764476	0.902067	0	0	-0.22302	-0.348997	-0.056029	1.16912	1.5708	0	0
0.95	-0.370654	1.30579	-1.0381	0.832159	0.857694	0.948255	-0.0876847	0.108795	-0.255386	0.137113	-0.310818	0	0	-0.276682	-0.381805	-0.340131	1.08465	-0.33734	0	0	-0.379842	0.15777	-0.232636	-0.0781843	-0.474541	0.511753	0.787438	0.88563	0	0	-0.237485	-0.345157	-0.0561942	1.1701	1.5708	0	0
0.96	-0.36114	1.305	-1.05079	0.830033	0.84758	0.949532	-0.10255	0.11105	-0.256807	0.135504	-0.304759	0	0	-0.250484	-0.383455	-0.331286	1.1363	-0.318611	0	0	-0.381891	0.154778	-0.229849	-0.0745515	-0.474305	0.522427	0.786523	0.875226	0	0	-0.244084	-0.344373	-0.0546357	1.16068	1.5708	0	0
0.97	-0.349927	1.30493	-1.06459	0.828075	0.837679	0.950946	-0.117687	0.112446	-0.257165	0.131912	-0.298012	0	0	-0.22365	-0.382101	-0.321322	1.1829	-0.282159	0	0	-0.383321	0.151252	-0.227794	-0.0696342	-0.473654	0.534267	0.783821	0.86347	0	0	-0.248982	-0.342427	-0.0537184	1.14933	1.5708	0	0
0.98	-0.323375	1.34077	-1.10265	0.824167	0.826558	0.947486	-0.0883976	0.100576	-0.217838	0.132539	-0.277543	0	0	-0.164862	-0.358998	-0.315662	1.23756	-0.226699	0	0	-0.346073	0.11984	-0.224541	-0.0739717	-0.469317	0.548165	0.780944	0.846363	0	0	-0.266512	-0.348153	-0.05198	1.14399	1.5708	0	0
0.99	-0.329946	1.30821	-1.08934	0.82419	0.818184	0.953637	-0.145345	0.113885	-0.257605	0.123287	-0.281424	0	0	-0.166255	-0.374907	-0.303032	1.26189	-0.205403	0	0	-0.381288	0.141442	-0.223694	-0.0593558	-0.4685	0.556466	0.771957	0.841879	0	0	-0.258183	-0.342046	-0.0476945	1.12341	1.5708	0	0
1	-0.301709	1.34588	-1.12885	0.820286	0.807363	0.950067	-0.11366	0.100912	-0.220891	0.123532	-0.264742	0	0	-0.104891	-0.349938	-0.299319	1.30603	-0.165267	0	0	-0.348927	0.109107	-0.203534	-0.133003	-0.383945	0.297428	0.768211	1.12911	0	0	-0.26185	-0.352736	-0.0300292	1.11927	1.5708	0	0
1.01	-0.297936	1.30753	-1.12511	0.820418	0.799457	0.956268	-0.175944	0.113396	-0.262191	0.119224	-0.263215	0	0	-0.113556	-0.364527	-0.28889	1.31905	-0.15791	0	0	-0.387758	0.130377	-0.221141	-0.059315	-0.454628	0.539236	0.767362	0.864156	0	0	-0.269676	-0.343318	-0.0468245	1.10563	1.5708	0	0
1.02	-0.27469	1.31118	-1.1516	0.818812	0.790015	0.957015	-0.154327	0.0911834	-0.326796	0.213152	-0.207696	0	0	-0.0850823	-0.353361	-0.283956	1.3385	-0.145881	0	0	-0.387041	0.121145	-0.220465	-0.0609193	-0.447022	0.526371	0.765195	0.880257	0	0	-0.276618	-0.343391	-0.0470634	1.0972	1.5708	0	0
1.03	-0.258386	1.31182	-1.17152	0.817	0.780605	0.958062	-0.175186	0.0920589	-0.318514	0.198172	-0.204062	0	0	-0.0600081	-0.346216	-0.281155	1.3504	-0.140541	0	0	-0.388481	0.114938	-0.21938	-0.0598993	-0.442213	0.522405	0.763964	0.888677	0	0	-0.282867	-0.342244	-0.0490586	1.0885	1.5708	0	0
1.04	-0.242777	1.31239	-1.19166	0.815229	0.771305	0.959006	-0.19333	0.0922081	-0.312841	0.186261	-0.20188	0	0	-0.0362123	-0.338669	-0.279698	1.35645	-0.134722	0	0	-0.390109	0.108143	-0.217116	-0.0587137	-0.437201	0.518433	0.761965	0.897826	0	0	-0.289868	-0.343344	-0.0484017	1.08039	1.5708	0	0
